<svg width="1920" height="1080" viewBox="0 0 1920 1080" xmlns="http://www.w3.org/2000/svg"><rect width="1920" height="1080" fill="#eb9a9a"/><path d="M 0,1080 C 0,1080 0,90 0,90 C 64.76343888070693,66.40942562592048 129.52687776141386,42.81885125184094 201,56 C 272.47312223858614,69.18114874815906 350.65592783505156,119.1340206185567 443,122 C 535.3440721649484,124.8659793814433 641.8494108983801,80.64506627393226 733,64 C 824.1505891016199,47.35493372606775 899.9464285714284,58.28571428571429 986,60 C 1072.0535714285716,61.71428571428571 1168.3648748159058,54.21207658321059 1240,67 C 1311.6351251840942,79.78792341678941 1358.5940721649483,112.8659793814433 1433,118 C 1507.4059278350517,123.1340206185567 1609.2588365243005,100.32400589101618 1695,91 C 1780.7411634756995,81.67599410898382 1850.3705817378498,85.83799705449191 1920,90 C 1920,90 1920,1080 1920,1080 Z" fill="#ffffff" opacity="0.049999999999999996"/><path d="M 0,1080 C 0,1080 0,180 0,180 C 67.46023564064802,172.59039027982328 134.92047128129605,165.18078055964654 229,161 C 323.07952871870395,156.81921944035346 443.7783505154639,155.8672680412371 523,166 C 602.2216494845361,176.1327319587629 639.9661266568482,197.350147275405 709,203 C 778.0338733431518,208.649852724595 878.3571428571429,198.73214285714286 959,181 C 1039.642857142857,163.26785714285714 1100.6053019145804,137.72128129602356 1174,149 C 1247.3946980854196,160.27871870397644 1333.221649484536,208.3827319587629 1422,209 C 1510.778350515464,209.6172680412371 1602.5081001472756,162.7477908689249 1686,150 C 1769.4918998527244,137.2522091310751 1844.7459499263623,158.62610456553756 1920,180 C 1920,180 1920,1080 1920,1080 Z" fill="#ffffff" opacity="0.09999999999999999"/><path d="M 0,1080 C 0,1080 0,270 0,270 C 86.15666421207658,263.17930780559647 172.31332842415316,256.35861561119293 261,261 C 349.68667157584684,265.64138438880707 440.903350515464,281.74484536082474 504,293 C 567.096649484536,304.25515463917526 602.0732695139911,310.6620029455081 678,298 C 753.9267304860089,285.3379970544919 870.8035714285713,253.6071428571429 956,249 C 1041.1964285714287,244.3928571428571 1094.712444771723,266.9094256259204 1177,265 C 1259.287555228277,263.0905743740796 1370.346649484536,236.7551546391753 1457,244 C 1543.653350515464,251.2448453608247 1605.9009572901327,292.0699558173785 1679,302 C 1752.0990427098673,311.9300441826215 1836.0495213549336,290.96502209131074 1920,270 C 1920,270 1920,1080 1920,1080 Z" fill="#ffffff" opacity="0.15"/><path d="M 0,1080 C 0,1080 0,360 0,360 C 55.22256995581736,365.5892857142857 110.44513991163473,371.17857142857144 199,364 C 287.5548600883653,356.82142857142856 409.44201030927843,336.875 487,345 C 564.5579896907216,353.125 597.7868188512517,389.3214285714286 681,389 C 764.2131811487483,388.6785714285714 897.4107142857144,351.83928571428567 985,336 C 1072.5892857142856,320.16071428571433 1114.5703240058908,325.32142857142856 1180,331 C 1245.4296759941092,336.67857142857144 1334.3079896907218,342.875 1420,354 C 1505.6920103092782,365.125 1588.1977172312222,381.1785714285714 1671,383 C 1753.8022827687778,384.8214285714286 1836.901141384389,372.41071428571433 1920,360 C 1920,360 1920,1080 1920,1080 Z" fill="#ffffff" opacity="0.19999999999999998"/><path d="M 0,1080 C 0,1080 0,450 0,450 C 57.64156848306334,465.6717599410899 115.28313696612668,481.34351988217975 206,481 C 296.7168630338733,480.65648011782025 420.50902061855663,464.29768041237105 512,464 C 603.4909793814434,463.70231958762895 662.6807805596467,479.4657584683359 724,481 C 785.3192194403533,482.5342415316641 848.7678571428571,469.8392857142856 933,461 C 1017.2321428571429,452.1607142857144 1122.2477908689248,447.1770986745214 1216,450 C 1309.7522091310752,452.8229013254786 1392.2409793814431,463.45231958762884 1469,462 C 1545.7590206185569,460.54768041237116 1616.788291605302,447.0136229749632 1691,443 C 1765.211708394698,438.9863770250368 1842.605854197349,444.4931885125184 1920,450 C 1920,450 1920,1080 1920,1080 Z" fill="#ffffff" opacity="0.24999999999999997"/><path d="M 0,1080 C 0,1080 0,540 0,540 C 69.92893961708393,556.0517304860089 139.85787923416785,572.1034609720176 232,571 C 324.14212076583215,569.8965390279824 438.49742268041246,551.6378865979381 520,550 C 601.5025773195875,548.3621134020619 650.1524300441826,563.3449926362298 720,553 C 789.8475699558174,542.6550073637702 880.8928571428573,506.98214285714283 958,509 C 1035.1071428571427,511.01785714285717 1098.2761413843887,550.7264359351988 1182,566 C 1265.7238586156113,581.2735640648012 1370.0025773195875,572.1121134020619 1459,559 C 1547.9974226804125,545.8878865979381 1621.7135493372607,528.8251104565537 1696,525 C 1770.2864506627393,521.1748895434463 1845.1432253313696,530.5874447717231 1920,540 C 1920,540 1920,1080 1920,1080 Z" fill="#ffffff" opacity="0.3"/><path d="M 0,1080 C 0,1080 0,630 0,630 C 75.57584683357877,623.6870397643593 151.15169366715753,617.3740795287187 227,610 C 302.84830633284247,602.6259204712813 378.96907216494844,594.1907216494844 464,599 C 549.0309278350516,603.8092783505156 642.9720176730486,621.8630338733432 737,632 C 831.0279823269514,642.1369661266568 925.1428571428571,644.3571428571428 987,639 C 1048.857142857143,633.6428571428572 1078.456553755523,620.7083946980855 1157,618 C 1235.543446244477,615.2916053019145 1363.0309278350514,622.8092783505153 1447,625 C 1530.9690721649486,627.1907216494847 1571.419734904271,624.0544918998528 1643,624 C 1714.580265095729,623.9455081001472 1817.2901325478645,626.9727540500736 1920,630 C 1920,630 1920,1080 1920,1080 Z" fill="#ffffff" opacity="0.35"/><path d="M 0,1080 C 0,1080 0,720 0,720 C 94.51988217967599,708.3959867452136 189.03976435935198,696.791973490427 280,698 C 370.960235640648,699.208026509573 458.36082474226805,713.2280927835052 514,723 C 569.639175257732,732.7719072164948 593.5169366715759,738.2956553755522 677,729 C 760.4830633284241,719.7043446244478 903.5714285714284,695.5892857142858 993,700 C 1082.4285714285716,704.4107142857142 1118.19734904271,737.3472017673049 1181,737 C 1243.80265095729,736.6527982326951 1333.639175257732,703.0219072164948 1429,705 C 1524.360824742268,706.9780927835052 1625.2459499263625,744.5651693667157 1708,753 C 1790.7540500736375,761.4348306332843 1855.3770250368188,740.7174153166421 1920,720 C 1920,720 1920,1080 1920,1080 Z" fill="#ffffff" opacity="0.39999999999999997"/><path d="M 0,1080 C 0,1080 0,810 0,810 C 85.41734167893964,804.8284241531665 170.83468335787927,799.6568483063329 257,806 C 343.16531664212073,812.3431516936671 430.0786082474226,830.2010309278351 511,832 C 591.9213917525774,833.7989690721649 666.85088365243,819.539027982327 746,814 C 825.14911634757,808.460972017673 908.5178571428573,811.6428571428571 980,817 C 1051.4821428571427,822.3571428571429 1111.0776877761414,829.8895434462445 1188,828 C 1264.9223122238586,826.1104565537555 1359.1713917525774,814.7989690721649 1435,816 C 1510.8286082474226,817.2010309278351 1568.2367452135493,830.9145802650958 1646,832 C 1723.7632547864507,833.0854197349042 1821.8816273932252,821.5427098674521 1920,810 C 1920,810 1920,1080 1920,1080 Z" fill="#ffffff" opacity="0.44999999999999996"/><path d="M 0,1080 C 0,1080 0,900 0,900 C 103.05393961708393,904.2849779086893 206.10787923416785,908.5699558173785 278,916 C 349.89212076583215,923.4300441826215 390.62242268041246,934.0051546391752 452,919 C 513.3775773195875,903.9948453608248 595.4024300441826,863.4094256259204 696,867 C 796.5975699558174,870.5905743740796 915.7678571428571,918.3571428571428 988,929 C 1060.232142857143,939.6428571428572 1085.526141384389,913.1620029455082 1164,901 C 1242.473858615611,888.8379970544918 1374.1275773195875,890.9948453608246 1474,894 C 1573.8724226804125,897.0051546391754 1641.9635493372607,900.858615611193 1711,902 C 1780.0364506627393,903.141384388807 1850.0182253313696,901.5706921944035 1920,900 C 1920,900 1920,1080 1920,1080 Z" fill="#ffffff" opacity="0.49999999999999994"/><path d="M 0,1080 C 0,1080 0,990 0,990 C 62.00239322533136,982.210972017673 124.00478645066272,974.4219440353461 196,975 C 267.9952135493373,975.5780559646539 349.9832474226804,984.5231958762886 437,985 C 524.0167525773196,985.4768041237114 616.0622238586157,977.4852724594995 694,979 C 771.9377761413843,980.5147275405005 835.767857142857,991.5357142857142 925,992 C 1014.232142857143,992.4642857142858 1128.866347569956,982.3718703976436 1219,974 C 1309.133652430044,965.6281296023564 1374.7667525773195,958.9768041237114 1457,970 C 1539.2332474226805,981.0231958762886 1638.066642120766,1009.720913107511 1718,1016 C 1797.933357879234,1022.279086892489 1858.966678939617,1006.1395434462445 1920,990 C 1920,990 1920,1080 1920,1080 Z" fill="#ffffff" opacity="0.5499999999999999"/></svg>