<svg width="1920" height="1080" viewBox="0 0 1920 1080" xmlns="http://www.w3.org/2000/svg"><rect width="1920" height="1080" fill="#ffffff"/><path d="M 0,1080 C 0,1080 0,270 0,270 C 101.19230769230768,312.99743589743593 202.38461538461536,355.9948717948718 296,360 C 389.61538461538464,364.0051282051282 475.6538461538462,329.0179487179487 589,303 C 702.3461538461538,276.9820512820513 843,259.93333333333334 959,233 C 1075,206.06666666666666 1166.3461538461538,169.24871794871797 1269,171 C 1371.6538461538462,172.75128205128203 1485.6153846153848,213.07179487179485 1596,236 C 1706.3846153846152,258.92820512820515 1813.1923076923076,264.4641025641026 1920,270 C 1920,270 1920,1080 1920,1080 Z" fill="#eb9a9a" opacity="0.15"/><path d="M 0,1080 C 0,1080 0,540 0,540 C 127.96410256410257,537.3717948717949 255.92820512820515,534.7435897435897 360,520 C 464.07179487179485,505.2564102564103 544.251282051282,478.3974358974359 645,465 C 745.748717948718,451.6025641025641 867.0666666666666,451.66666666666663 978,474 C 1088.9333333333334,496.33333333333337 1189.4820512820513,540.9358974358973 1288,562 C 1386.5179487179487,583.0641025641027 1483.0051282051281,580.5897435897436 1588,573 C 1692.9948717948719,565.4102564102564 1806.497435897436,552.7051282051282 1920,540 C 1920,540 1920,1080 1920,1080 Z" fill="#eb9a9a" opacity="0.3"/><path d="M 0,1080 C 0,1080 0,810 0,810 C 128.9820512820513,764.3153846153846 257.9641025641026,718.6307692307691 350,714 C 442.0358974358974,709.3692307692309 497.125641025641,745.7923076923078 603,774 C 708.874358974359,802.2076923076922 865.5333333333333,822.2 989,811 C 1112.4666666666667,799.8 1202.7410256410255,757.4076923076924 1295,751 C 1387.2589743589745,744.5923076923076 1481.502564102564,774.1692307692307 1586,790 C 1690.497435897436,805.8307692307693 1805.248717948718,807.9153846153847 1920,810 C 1920,810 1920,1080 1920,1080 Z" fill="#eb9a9a" opacity="0.44999999999999996"/></svg>